<?xml version="1.0" ?><svg data-name="Layer 3" id="Layer_3" viewBox="0 0 1000 1000" xmlns="http://www.w3.org/2000/svg"><title/><path d="M758.617,674.5493c55.5106-133.4205-34.8943-200.7164-34.8943-200.7164,50.8876-5.7672,63.4887-50.7654,63.4887-100.8356,0-27.4473-11.8577-52.2542-30.9554-70.0174l-.8414-1.1042,2.9248-4.5a65.8462,65.8462,0,0,0,9.5888-34.2358c0-24.246-13.1954-45.5537-33.1128-57.7509l-.3783-.2122a137.8172,137.8172,0,0,0,1.4816-20.1914c0-79.0788-67.2366-143.1846-150.1769-143.1846A153.5954,153.5954,0,0,0,481.7826,81.6541l-.41.38a163.6615,163.6615,0,0,0-45.8075-6.4891c-86.4841,0-156.5934,66.8448-156.5934,149.3023a143.7917,143.7917,0,0,0,1.3458,19.6619l.0352.2578a66.9606,66.9606,0,0,0-22.7295,50.0313,65.613,65.613,0,0,0,4.1844,23.1065l-.1253.4063a94.1948,94.1948,0,0,0-17.52,54.6862c0,36.6574,21.1507,68.6046,52.4515,85.3535l-.1243.693s-125.6844,42.7181-67.4243,227.5179q-2.4095,2.4965-4.7631,5.0476c-46.1611,50.218-71.5831,114.4054-71.5831,180.74v84.0848a1.7652,1.7652,0,0,0,1.7648,1.7652H845.516a1.7657,1.7657,0,0,0,1.7653-1.7652V872.3491c0-66.3344-25.422-130.5228-71.5836-180.74Q767.5218,682.7151,758.617,674.5493ZM244.0579,954.6686h-87.81V872.3491c0-65.4474,25.0915-128.7867,70.6523-178.3513q8.2079-8.929,17.1573-17.117Zm84.3028-712.5775a201.9424,201.9424,0,0,1,15.9215-35.117c1.5316-2.85,3.3138-5.5474,5.05-8.2774,1.6891-2.7645,3.6552-5.338,5.5049-7.9986,3.791-5.2532,7.8609-10.3162,12.1592-15.19s8.8565-9.5276,13.6193-13.98c1.1529-1.1555,2.4114-2.1923,3.6526-3.2492l3.727-3.17c1.2222-1.083,2.541-2.0457,3.828-3.0494l3.8811-2.989a192.4336,192.4336,0,0,1,33.6844-20.0935,183.2193,183.2193,0,0,1,153.009.0219A192.4008,192.4008,0,0,1,616.08,149.0871l3.8809,2.9883c1.287,1.0036,2.6057,1.9661,3.828,3.0488l3.727,3.17c1.2465,1.0506,2.4886,2.1059,3.6447,3.2572,4.7629,4.4505,9.3209,9.1033,13.62,13.9754s8.3687,9.9335,12.16,15.1856a171.2351,171.2351,0,0,1,10.55,16.2767,201.2916,201.2916,0,0,1,15.9231,35.1107,191.917,191.917,0,0,1,9.6588,75.1382h-1.0342a203.851,203.851,0,0,0-13.7143-73.1716,196.9137,196.9137,0,0,0-33.9893-56.8439,160.8055,160.8055,0,0,0-121.24-63.8214q-8.5733-.816-17.1967-.8137c-5.7229-.01-11.4451.2707-17.1426.8118a160.8039,160.8039,0,0,0-121.3072,63.84,196.918,196.918,0,0,0-33.9756,56.8271,203.8511,203.8511,0,0,0-13.7151,73.1714h-1.0342A191.8213,191.8213,0,0,1,328.3607,242.0911Zm345.0005,70.26V418.3556c0,78.1734-63.5984,141.7718-141.7719,141.7718H480.2069c-78.1735,0-141.7724-63.5984-141.7724-141.7718V316.2294c29.8523,13.8864,75.7689-40.188,128.0234-54.2089,51.9194-13.9308,93.4416-27.023,102.3508-63.8118,0,0,14.3819,63.1694,64.1369,71.7294C680.6078,278.138,661.3536,288.4539,673.3612,312.3512ZM301.8209,364.53v-18.857a30.3352,30.3352,0,0,1,30.3353-30.335h2.7487v81.6808H334.31A32.489,32.489,0,0,1,301.8209,364.53Zm322.05,417.9349H372.4062L322.5805,625.41a305.5169,305.5169,0,0,1,79.6106-23.3254,1.5336,1.5336,0,0,0,.1651-.0322,10.0924,10.0924,0,0,0,7.6605-9.8069v-2.0876C426.791,608.24,466.98,615.2571,510.6416,605.5606c36.4733-8.1,66.2082-25.7275,79.3408-44.9914v31.6763a10.0933,10.0933,0,0,0,7.6609,9.8069,1.592,1.592,0,0,0,.1656.0322,305.4515,305.4515,0,0,1,81.082,24.0014ZM709.9847,364.52a32.4887,32.4887,0,0,1-32.4887,32.4888h-.6042V315.3285H679.65a30.3351,30.3351,0,0,1,30.3351,30.3352Zm133.766,590.1482H755.9421V676.88q8.9346,8.1882,17.1578,17.1175c45.56,49.5646,70.6508,112.9039,70.6508,178.3513Z"/><path d="M501.01,408.978h9.7768a12.7823,12.7823,0,0,0,12.768-12.767,1.7653,1.7653,0,0,0-3.5306,0,9.2472,9.2472,0,0,1-9.2374,9.2364H501.01a9.2473,9.2473,0,0,1-9.2374-9.2364,1.7648,1.7648,0,1,0-3.53,0A12.7815,12.7815,0,0,0,501.01,408.978Z"/><path d="M431.2545,333.6586c-4.4845,0-8.12,5.8769-8.12,13.1263s3.6354,13.1265,8.12,13.1265,8.12-5.8769,8.12-13.1265S435.739,333.6586,431.2545,333.6586Z"/><path d="M448.5956,296.1227a39.4352,39.4352,0,0,0-51.8362,20.4114,1.7648,1.7648,0,1,0,3.2366,1.408,35.9028,35.9028,0,0,1,47.1917-18.5829,1.7647,1.7647,0,1,0,1.4079-3.2365Z"/><path d="M580.5417,333.6586c-4.4845,0-8.12,5.8769-8.12,13.1263s3.6353,13.1265,8.12,13.1265,8.12-5.8769,8.12-13.1265S585.0262,333.6586,580.5417,333.6586Z"/><path d="M563.2,296.1227a1.7648,1.7648,0,1,0,1.408,3.2365,35.8652,35.8652,0,0,1,47.1927,18.5829,1.7648,1.7648,0,1,0,3.2365-1.408A39.4393,39.4393,0,0,0,563.2,296.1227Z"/><path d="M547.39,441.579H464.4059a1.7652,1.7652,0,0,0-1.7648,1.7653,43.2573,43.2573,0,0,0,86.5145,0A1.7656,1.7656,0,0,0,547.39,441.579Zm-2.3816,8.7033c-3.938,2.7054-14.1313,6.7652-39.866,6.7652-24.7173,0-34.4736-3.7448-38.3-6.4383a39.6642,39.6642,0,0,1-.6334-5.5h79.3775A39.6615,39.6615,0,0,1,545.0088,450.2823Z"/></svg>