<svg viewBox="0 0 512 512" xmlns="http://www.w3.org/2000/svg"><g data-name="24-hrs_service" id="_24-hrs_service"><path d="M140.4287,91.82a9.9972,9.9972,0,0,1,10-10h47.3535a77.8752,77.8752,0,1,0,127.8189,86.6352l3.87,10.0965,10.2715-3.9375-8.2617-21.5567a5.4974,5.4974,0,0,0-6.4375-3.375l-22.43,5.4639,2.6035,10.6875,10.751-2.6187a66.9126,66.9126,0,1,1,6.9482-29.6888h11A77.5855,77.5855,0,0,0,314.2178,81.82h47.351a9.9971,9.9971,0,0,1,10,10V275.4788h15.24V64.27a32.6993,32.6993,0,0,0-32.7-32.7h-196.22a32.7,32.7,0,0,0-32.7,32.7V223.8188h15.24Z"/><path d="M371.5688,428.76a10.0036,10.0036,0,0,1-10,10h-211.14a10.0036,10.0036,0,0,1-10-10V333.1389h-15.24V456.83a32.7,32.7,0,0,0,32.7,32.7h196.22a32.6993,32.6993,0,0,0,32.7-32.7V380.9187h-15.24Zm-92.71,40.56h-45.77v-12h45.77Z"/><path d="M400.4189,287.4832H254.1611A18.7578,18.7578,0,0,0,235.4248,306.22v43.9629a18.757,18.757,0,0,0,18.7363,18.7353h5.84v16.04a9.6119,9.6119,0,0,0,16.5342,6.68l16.6484-17.2432a18.0229,18.0229,0,0,1,12.8984-5.4766h94.3369a18.757,18.757,0,0,0,18.7364-18.7353V306.22A18.7578,18.7578,0,0,0,400.4189,287.4832Zm6.7364,62.6992a6.7432,6.7432,0,0,1-6.7364,6.7353H306.082a30.0906,30.0906,0,0,0-21.5312,9.1406l-12.55,12.9981V366.86a9.9535,9.9535,0,0,0-9.9424-9.9424h-7.8975a6.7432,6.7432,0,0,1-6.7363-6.7353V306.22a6.7434,6.7434,0,0,1,6.7363-6.7363H400.4189a6.7434,6.7434,0,0,1,6.7364,6.7363Z"/><path d="M122.2852,281.3269l5.5273-2.8789a10.4673,10.4673,0,0,0,5.6484-9.3125v-4.7734a10.5114,10.5114,0,0,0-10.5-10.5h-5.873a10.5114,10.5114,0,0,0-10.5,10.5V269.7h9v-5.3379a1.5016,1.5016,0,0,1,1.5-1.5h5.873a1.5016,1.5016,0,0,1,1.5,1.5v4.7734a1.4933,1.4933,0,0,1-.8066,1.33l-5.5273,2.8789A13.102,13.102,0,0,0,111.0557,285h9A4.128,4.128,0,0,1,122.2852,281.3269Z"/><rect height="7.8877" width="9" x="111.335" y="292.3748"/><rect height="9" width="87.5586" x="147.623" y="264.6619"/><rect height="9" width="51.4336" x="147.623" y="283.3328"/><rect height="9" width="76.0996" x="268.167" y="314.1892"/><rect height="9" width="117.7861" x="268.416" y="333.1091"/><rect height="9" width="27.8359" x="358.3662" y="314.1892"/><rect height="9.9996" transform="translate(9.6288 231.9734) rotate(-45)" width="17.9304" x="275.8658" y="99.364"/><rect height="17.9308" transform="translate(-31.6121 249.0637) rotate(-45.0011)" width="9.9996" x="279.8325" y="153.7246"/><rect height="10" width="17.9312" x="287.9458" y="128.5264"/><rect height="9.9996" transform="translate(-48.6947 207.8339) rotate(-45.004)" width="17.9304" x="217.5407" y="157.6911"/><rect height="17.9308" transform="translate(-7.4537 190.7352) rotate(-45.0011)" width="9.9996" x="221.5048" y="95.3994"/><rect height="17.9307" width="10" x="250.6694" y="165.8047"/><path d="M270.11,128.5273H260.668l0-14.748h-10l.001,19.748a5,5,0,0,0,5,5H270.11Z"/><rect height="17.9307" width="10" x="250.6675" y="83.3193"/><rect height="10" width="17.9312" x="205.46" y="128.5283"/><path d="M223.4248,309.14H93.4258a7.0952,7.0952,0,0,1-7.0869-7.0879V254.906a7.0952,7.0952,0,0,1,7.0869-7.0879H248.9814a7.096,7.096,0,0,1,7.0879,7.0879v20.5772h12V254.906a19.1091,19.1091,0,0,0-19.0879-19.0879H93.4258A19.1089,19.1089,0,0,0,74.3389,254.906v47.1465A19.1089,19.1089,0,0,0,93.4258,321.14h129.999Z"/></g></svg>