<?xml version="1.0" ?><svg data-name="Layer 3" id="Layer_3" viewBox="0 0 1000 1000" xmlns="http://www.w3.org/2000/svg"><title/><path d="M598.4213,596.2342a6.567,6.567,0,0,1-4.9083-6.362V524.637a171.0365,171.0365,0,0,0,77.3059-135.5446h.6436a34.2919,34.2919,0,0,0,34.2534-34.2533v-18.857A32.1361,32.1361,0,0,0,675.997,303.98l5.3908-76.8214a181.3877,181.3877,0,0,0-362.7753,0l5.6033,76.81a32.1356,32.1356,0,0,0-29.8713,32.014v18.857a34.2919,34.2919,0,0,0,34.2534,34.2533h.5832A171.036,171.036,0,0,0,406.487,524.637v65.2352a6.567,6.567,0,0,1-4.9083,6.362C332.885,606.5729,269.93,639.5994,224.3023,689.237c-46.1616,50.217-71.5836,114.4044-71.5836,180.7388v82.4879a1.7657,1.7657,0,0,0,1.7653,1.7653H845.516a1.7657,1.7657,0,0,0,1.7653-1.7653V869.9758c0-66.3344-25.422-130.5218-71.5836-180.7388C730.07,639.5994,667.115,606.5729,598.4213,596.2342Zm72.5729-214.6815v-74.141h2.6211a28.6028,28.6028,0,0,1,28.57,28.57v18.857a30.7577,30.7577,0,0,1-30.7228,30.7237h-.5195C670.9742,384.2294,670.9942,382.8934,670.9942,381.5527Zm-342.3963,4.01a30.7577,30.7577,0,0,1-30.7228-30.7237v-18.857a28.6019,28.6019,0,0,1,28.569-28.57h2.5617v74.141c0,1.3407.02,2.6767.0509,4.01Zm4.0634,2.2359a1.7426,1.7426,0,0,0,.0718-.4711V305.6469a1.7439,1.7439,0,0,0-.1967-.7936v-.25c16.9291-10.3956,33.1512-32.0133,43.6578-56.9984,10.7451-25.5522,13.1808-51.299,8.2344-70.726l.6933-.0007C412.4353,188.9514,452.4558,196.57,497.05,196.57c45.0516,0,90.49-7.4022,117.8191-19.6911h.7021c-4.9464,19.427-2.5107,45.1738,8.2344,70.726,10.5066,24.9852,26.7287,46.6885,43.6578,57.0785v.2846a1.751,1.751,0,0,0-.1364.6791v81.6807a1.8084,1.8084,0,0,0,.0185.1859C664.1944,477.1016,590.3436,549.0153,500,549.0153A167.5749,167.5749,0,0,1,332.6613,387.7987Zm69.53,211.9135c.0555-.0087.111-.0194.1656-.0331a10.0933,10.0933,0,0,0,7.6609-9.8069V565.6163c16.7752,18.0813,56.9632,25.0979,100.6238,15.4017,36.4734-8.1,66.2084-25.7274,79.341-44.9913v53.8455a10.0933,10.0933,0,0,0,7.6609,9.8069c.0546.0137.11.0244.1656.0331q6.2028.9316,12.34,2.1147a2.7425,2.7425,0,0,0-.0574.4345c-.4246,21.2507-11.9929,41.0759-32.5728,55.8234C556.8536,672.8936,529.3236,681.0483,500,681.0483c-29.21,0-56.6754-8.1469-77.3371-22.94-20.5555-14.7173-32.1852-34.488-32.7451-55.67a3.1386,3.1386,0,0,0-.0842-.6084Q395.9788,600.649,402.1911,599.7122ZM593.23,673.954C568.4687,691.96,535.36,701.8774,500,701.8774c-35.3546,0-68.4639-9.9258-93.2286-27.9507-24.2692-17.6636-37.83-41.2152-38.3069-66.4512l17.9412-4.407c1.591,45.75,51.3484,81.51,113.5943,81.51,62.37,0,112.0276-35.6477,113.5943-81.3215l17.9421,4.2823C631.0554,632.768,617.4959,656.3059,593.23,673.954Z"/><path d="M495.1111,391.0636h9.7778a12.7814,12.7814,0,0,0,12.767-12.7669,1.7653,1.7653,0,0,0-3.5306,0,9.2472,9.2472,0,0,1-9.2364,9.2373h-9.7778a9.2472,9.2472,0,0,1-9.2364-9.2373,1.7653,1.7653,0,0,0-3.5306,0A12.7814,12.7814,0,0,0,495.1111,391.0636Z"/><path d="M574.5738,308.0805c-4.4844,0-8.12,5.8769-8.12,13.1264s3.6352,13.1263,8.12,13.1263,8.12-5.8769,8.12-13.1263S579.0586,308.0805,574.5738,308.0805Z"/><path d="M551.83,287.6346c19.9236-10.8011,42.0049-7.5933,59.0668,8.5836a1.7649,1.7649,0,0,0,2.4284-2.5618c-18.2246-17.279-41.8423-20.6908-63.1778-9.1249a1.765,1.765,0,1,0,1.6826,3.1031Z"/><path d="M425.4262,308.0805c-4.4845,0-8.12,5.8769-8.12,13.1264s3.6355,13.1263,8.12,13.1263,8.12-5.8769,8.12-13.1263S429.9106,308.0805,425.4262,308.0805Z"/><path d="M448.17,287.6346a1.765,1.765,0,1,0,1.6826-3.1031c-21.3365-11.5669-44.9542-8.1537-63.1778,9.1249a1.7649,1.7649,0,0,0,2.4284,2.5618C406.1647,280.0409,428.246,276.835,448.17,287.6346Z"/><path d="M500,469.5472A43.3067,43.3067,0,0,0,543.258,426.29a1.7653,1.7653,0,0,0-1.7653-1.7648H458.5082a1.7652,1.7652,0,0,0-1.7652,1.7648A43.3065,43.3065,0,0,0,500,469.5472Zm-39.6885-41.4927H539.69a39.5994,39.5994,0,0,1-.5784,5.1734c-3.9381,2.7056-14.1316,6.7654-39.8662,6.7654-24.718,0-34.4744-3.745-38.3-6.4387A39.7019,39.7019,0,0,1,460.3115,428.0545Z"/></svg>