<?xml version="1.0" ?><svg data-name="Layer 3" id="Layer_3" viewBox="0 0 1000 1000" xmlns="http://www.w3.org/2000/svg"><title/><path d="M495.1117,417.8723h9.7771a12.7813,12.7813,0,0,0,12.767-12.767,1.7653,1.7653,0,0,0-3.53,0,9.2472,9.2472,0,0,1-9.2365,9.2374h-9.7771a9.2481,9.2481,0,0,1-9.2375-9.2374,1.7648,1.7648,0,1,0-3.5295,0A12.7813,12.7813,0,0,0,495.1117,417.8723Z"/><ellipse cx="423.5915" cy="355.6794" rx="8.1199" ry="13.1264"/><path d="M572.8786,342.553c-4.4844,0-8.12,5.8769-8.12,13.1264s3.6354,13.1264,8.12,13.1264,8.12-5.8769,8.12-13.1264S577.3632,342.553,572.8786,342.553Z"/><path d="M556.9452,324.8233a35.8638,35.8638,0,0,1,47.1926,18.5829,1.7648,1.7648,0,1,0,3.2366-1.408,39.4369,39.4369,0,0,0-51.8372-20.4113,1.7647,1.7647,0,1,0,1.408,3.2364Z"/><path d="M598.0708,618.0418c-.1532-.0383-.3017-.0869-.4514-.1333,11.4147-2.0936.1371-15.1544,2.9431-33.0122,2.1425-13.6337-4.0224-14.6457-7.2878-14.2825l.2038-24.0736a171.0364,171.0364,0,0,0,77.34-135.5674h.7791a34.2931,34.2931,0,0,0,34.2544-34.2539V357.8621a32.1354,32.1354,0,0,0-30.7962-32.067C750.8344,95.0757,604.9022,82.0734,592.57,81.53l-.8218-.027-.0356-1.46c-.5-10.8562-7.7917-77.7154-112.124-45.4669C366.4874,69.5348,234.9507,91.7373,325.4212,325.783a32.1309,32.1309,0,0,0-31.2724,32.0791v18.8568a34.2922,34.2922,0,0,0,34.2534,34.2539h.78a171.036,171.036,0,0,0,77.303,135.5431v24.2652c-2.7087-.5941-10.6995-1.1315-8.3034,14.1152,2.87,18.266-9.01,31.52,3.7475,33.1455-140.2807,21.07-247.4455,134.8317-247.4455,272.0094v84.0852H845.5163V890.0512C845.5163,752.8735,738.3515,639.1119,598.0708,618.0418Zm72.9233-214.6092v-74.141h2.7575a28.6026,28.6026,0,0,1,28.57,28.57v18.8568a30.7588,30.7588,0,0,1-30.7237,30.7242h-.6037Zm-341.9872,0v4.0105h-.6047a30.7588,30.7588,0,0,1-30.7237-30.7242V357.8621a28.6026,28.6026,0,0,1,28.57-28.57h2.7585Zm3.53,0V255.2394a4.0605,4.0605,0,0,1,.8526.299c6.4233,60.8055,29.8372,89.8576,88.975,80.0177,24.8718-4.1384,55.0266-32.4418,83.5342-39.9712,53.0365-14.0082,100.3664-16.8938,97.3327-86.7147l2.4807.5484c10.2089,2.9145,49.0347,2.6746,61.752,103.1643v90.85c0,92.34-75.1239,167.463-167.4636,167.463S332.5364,495.7723,332.5364,403.4326ZM589.739,571.2841q-.4772.7738-.9957,1.5107c-24.7739,16.2709-56.0273,25.9792-89.9991,25.9792l-1.7648-.0255c-32.7966-.5569-62.929-10.163-86.9647-25.9453V548.77a170.6315,170.6315,0,0,0,179.9144.0353Z"/><path d="M543.2581,450.7081a1.7654,1.7654,0,0,0-1.7654-1.7649h-82.985a1.7649,1.7649,0,0,0-1.7648,1.7649,43.2576,43.2576,0,0,0,86.5152,0Zm-82.3131,7.265a39.6424,39.6424,0,0,1-.6335-5.5H539.69a39.6473,39.6473,0,0,1-.5784,5.1729c-3.9377,2.7056-14.1308,6.7657-39.8665,6.7657C474.5277,464.4115,464.7713,460.6668,460.945,457.9731Z"/></svg>