    <svg
      height="48"
      viewBox="0 0 48 48"
      width="48"
      xmlns="http://www.w3.org/2000/svg"
    >
      <path d="M72 0c-8.836 0-16 7.164-16 16s7.164 16 16 16 16-7.164 16-16S80.836 0 72 0zM94 96H46c-1.104 0-2-.9-2-2V76H22c-1.1 0-2-.9-2-2V60H2c-1.1 0-2-.9-2-2V41.156c0-8.228 8.176-13.32 15.752-13.32 5.5 0 10.876 2.6 13.82 6.532a20.504 20.504 0 0110.08-2.616c6.352 0 12.412 2.884 16.252 7.616C59.928 37.16 64.6 36 69.524 36 84.368 36 96 46.212 96 59.252v34.752A2.002 2.002 0 0194 96zM40 4c-6.628 0-12 5.376-12 12s5.372 12 12 12 12-5.376 12-12S46.632 4 40 4zM16 8c-4.416 0-8 3.584-8 8s3.584 8 8 8 8-3.584 8-8-3.584-8-8-8z" />
    </svg>