<?xml version="1.0" ?><svg viewBox="0 0 512 512" xmlns="http://www.w3.org/2000/svg"><g id="Electronic_wallet"><path d="M296.4326,265.4958c-2.45-12.3327-11.4-24.5349-30.5058-24.5349H159.3437a24.2685,24.2685,0,0,0-24.2412,24.24l-.0009,108.2666a20.2844,20.2844,0,0,0,20.2617,20.2607H296.2461a20.2836,20.2836,0,0,0,20.2607-20.2607V285.7471A20.2782,20.2782,0,0,0,296.4326,265.4958Zm-113.38-12.5349h82.8741c4.7646,0,15.02,1.3536,18.246,12.5245h-101.12a6.2623,6.2623,0,1,1,0-12.5245Zm121.4541,52.0918H261.9961a12.4533,12.4533,0,0,0-12.44,12.44v24.23a12.4533,12.4533,0,0,0,12.44,12.4394h42.5107v19.3057a8.27,8.27,0,0,1-8.2607,8.2607H155.3633a8.2706,8.2706,0,0,1-8.2617-8.2607l.0009-108.2666a12.2546,12.2546,0,0,1,12.2412-12.24H165.92a18.21,18.21,0,0,0,17.1328,24.5245H291.1279v.0009h5.1182a8.27,8.27,0,0,1,8.2607,8.2608Zm-16.8379,24.5547a10.5147,10.5147,0,1,1-10.5146-10.5149A10.5144,10.5144,0,0,1,287.6689,329.6074Z"/><path d="M323.918,31.575H270.3354a64.79,64.79,0,0,0-89.0615,0H127.6914A32.695,32.695,0,0,0,94.9961,64.27V456.8345a32.695,32.695,0,0,0,32.6953,32.6948H323.918a32.695,32.695,0,0,0,32.6953-32.6948V64.27A32.695,32.695,0,0,0,323.918,31.575Zm-98.1133-5.7288A52.9646,52.9646,0,1,1,172.84,78.811,53.0246,53.0246,0,0,1,225.8047,25.8462ZM174.1494,118.147a64.8711,64.8711,0,0,0,103.3106,0,52.9649,52.9649,0,1,1-103.3106,0Zm74.5366,351.17H202.9233v-12H248.686Zm92.6875-40.5623a10,10,0,0,1-10,10H120.2358a10,10,0,0,1-10-10V91.8171a10,10,0,0,1,10-10h40.68a64.5072,64.5072,0,0,0,5.1489,22.5032,64.9649,64.9649,0,1,0,119.48,0,64.5051,64.5051,0,0,0,5.149-22.5032h40.68a10,10,0,0,1,10,10Z"/><path d="M218.7974,110.7642h11v-8.6924a16.4508,16.4508,0,0,0-2.0913-32.7691h-4.44a4.2708,4.2708,0,1,1,0-8.5415h20.231v-11H230.97V41.2168h-11v8.9124a15.2662,15.2662,0,0,0,3.2954,30.1735h4.44a5.4585,5.4585,0,0,1,0,10.917H207.4443v11h11.3531Z"/></g></svg>