<?xml version="1.0" ?><svg height="24" id="svg8" version="1.1" viewBox="0 0 24 24" width="24" xmlns="http://www.w3.org/2000/svg" xmlns:cc="http://creativecommons.org/ns#" xmlns:dc="http://purl.org/dc/elements/1.1/" xmlns:rdf="http://www.w3.org/1999/02/22-rdf-syntax-ns#" xmlns:svg="http://www.w3.org/2000/svg"><defs id="defs2"><rect height="7.0346723" id="rect2504" width="7.9207187" x="-1.1008456" y="289.81766"/></defs><g id="g1964" transform="translate(0.25124544)"><path d="m -37.748047,41.5 v 21 h 14 v -6.378906 c 1.375178,-0.110822 2.705763,-0.674582 3.734375,-1.703125 2.349398,-2.348681 2.349834,-6.171971 0.002,-8.521485 l -0.002,-0.002 c -0.0107,-0.01077 -0.02242,-0.02056 -0.0332,-0.03125 v -0.002 h -0.002 c -1.036499,-1.019354 -2.351432,-1.585147 -3.699219,-1.703125 V 41.5 Z m 1,3.632812 h 9.132813 c -0.328636,0.217732 -0.640353,0.470859 -0.929688,0.759766 -2.079832,2.077176 -2.298062,5.329283 -0.625,7.708984 l -0.998047,3.095704 3.195313,-1.189454 c 0.709129,0.355087 1.464763,0.546678 2.224609,0.611329 V 58 h -12 z m 11.945313,1.390626 h 1.041015 v 1.136718 h 1.542969 v 0.962891 h -3.085938 v 1.310547 h 3.085938 v 3.234375 h -1.542969 v 1.136719 h -1.041015 v -1.136719 h -1.539063 v -0.958985 h 3.082031 v -1.314453 h -3.082031 v -3.234375 h 1.539063 z m -7.445313,13.267578 h 3 v 1 h -3 z" id="path1621" style="color:#000000;font-style:normal;font-variant:normal;font-weight:normal;font-stretch:normal;font-size:medium;line-height:normal;font-family:sans-serif;font-variant-ligatures:normal;font-variant-position:normal;font-variant-caps:normal;font-variant-numeric:normal;font-variant-alternates:normal;font-variant-east-asian:normal;font-feature-settings:normal;font-variation-settings:normal;text-indent:0;text-align:start;text-decoration:none;text-decoration-line:none;text-decoration-style:solid;text-decoration-color:#000000;letter-spacing:normal;word-spacing:normal;text-transform:none;writing-mode:lr-tb;direction:ltr;text-orientation:mixed;dominant-baseline:auto;baseline-shift:baseline;text-anchor:start;white-space:normal;shape-padding:0;shape-margin:0;inline-size:0;clip-rule:nonzero;display:inline;overflow:visible;visibility:visible;opacity:1;isolation:auto;mix-blend-mode:normal;color-interpolation:sRGB;color-interpolation-filters:linearRGB;solid-color:#000000;solid-opacity:1;vector-effect:none;fill:#000000;fill-opacity:1;fill-rule:nonzero;stroke:none;stroke-width:1;stroke-linecap:square;stroke-linejoin:miter;stroke-miterlimit:4;stroke-dasharray:none;stroke-dashoffset:0;stroke-opacity:1;paint-order:stroke fill markers;color-rendering:auto;image-rendering:auto;shape-rendering:auto;text-rendering:auto;enable-background:accumulate;stop-color:#000000;stop-opacity:1" transform="translate(39.748383,-40)"/></g></svg>