<svg
  data-name="Layer 1"
  viewBox="0 0 512 512"
  xmlns="http://www.w3.org/2000/svg"
>
  <path d="M425.26 445.52h-32.41V283.18h-28.5V173.71h-26.71v-45.32h-20V88.23h-53.49V58.32a8.16 8.16 0 00-16.31 0v29.91h-53.52v40.16h-20v45.32h-26.67v109.47h-28.5v162.34H86.74a8.16 8.16 0 000 16.31h338.52a8.16 8.16 0 000-16.31zM348 190v93.16h-63.64V190H348zm-26.68-45.3v29h-37v-29h37zm-57.17-17.5v-22.65h37.22v23.84h-37.46a8.09 8.09 0 00.24-1.19zm-53.52-22.65h37.21v22.65a8.09 8.09 0 00.24 1.19h-37.45zm-19.95 40.15h37v29h-37zM164 190h63.68v93.16H164zm-28.49 255.5v-146h92.17v146zm108.48 0V144.7h24.1v300.82zm40.41 0v-146h92.17v146z" />
  <path d="M149.98 316.55H168.35999999999999V334.93H149.98z" />
  <path d="M185.33 316.55H203.71V334.93H185.33z" />
  <path d="M149.98 359.67H168.35999999999999V378.05H149.98z" />
  <path d="M185.33 359.67H203.71V378.05H185.33z" />
  <path d="M185.33 205.85H203.71V224.23H185.33z" />
  <path d="M185.33 248.97H203.71V267.35H185.33z" />
  <path d="M149.98 402.79H168.35999999999999V421.17H149.98z" />
  <path d="M185.33 402.79H203.71V421.17H185.33z" />
  <path d="M343.63 316.55H362.01V334.93H343.63z" />
  <path d="M308.28 316.55H326.65999999999997V334.93H308.28z" />
  <path d="M343.63 359.67H362.01V378.05H343.63z" />
  <path d="M308.28 359.67H326.65999999999997V378.05H308.28z" />
  <path d="M308.28 205.85H326.65999999999997V224.23H308.28z" />
  <path d="M308.28 248.97H326.65999999999997V267.35H308.28z" />
  <path d="M343.63 402.79H362.01V421.17H343.63z" />
  <path d="M308.28 402.79H326.65999999999997V421.17H308.28z" />
</svg>