<?xml version="1.0" ?><svg data-name="Layer 3" id="Layer_3" viewBox="0 0 1000 1000" xmlns="http://www.w3.org/2000/svg"><title/><path d="M652.5625,594.0637c-4.2414-5.328-17.5875-12.3493-51.8069-20.4212a8.0644,8.0644,0,0,0-6.7661,1.444l-.409.3116a6.62,6.62,0,0,1-.0671-.91v-48.551A145.4855,145.4855,0,0,0,676.8913,394.51V375.7542h.6047A34.2936,34.2936,0,0,0,711.75,341.5V322.6434a32.1523,32.1523,0,0,0-23.424-30.8992l3.2816-32.6719c2.014-20.05,31.8185-63.7293-17.74-135.207C613.9189,37.4019,505.5326,67.7987,505.5326,67.7987h-.5281S396.6182,37.4019,336.6693,123.8653c-49.5586,71.4777-18.4079,115.89-16.4814,135.4538l3.257,32.1916a32.1527,32.1527,0,0,0-23.399,30.8922v18.8564A34.2936,34.2936,0,0,0,334.3,375.5137h.6037V394.51a145.369,145.369,0,0,0,71.5826,125.1646v54.8128a6.6182,6.6182,0,0,1-.1081,1.18l-.7625-.5813a8.0647,8.0647,0,0,0-6.7662-1.444c-34.6243,8.1673-47.878,15.26-51.9529,20.61-47.0575,16.19-89.41,43.499-122.5951,79.6C178.14,724.07,152.7182,788.2569,152.7182,854.5914v81.0254a1.7653,1.7653,0,0,0,1.7653,1.7653h.0049l347.1966-.99,256.2894-.7307,87.5469-.25a1.7659,1.7659,0,0,0,1.76-1.7653V854.5914c0-66.3345-25.422-130.5219-71.5836-180.7389C742.386,637.6129,699.8367,610.23,652.5625,594.0637Zm24.3288-299.99H679.65a28.6026,28.6026,0,0,1,28.57,28.57V341.5a30.7585,30.7585,0,0,1-30.7237,30.7238h-.6047Zm-341.9873,77.91H334.3a30.7585,30.7585,0,0,1-30.7238-30.7238V322.4029a28.6026,28.6026,0,0,1,28.57-28.57h2.7575Zm3.5305,22.5272V260.3079c0-.517.0147-1.03.02-1.5462a409.9171,409.9171,0,0,0,62.7091-14.1124c-3.0589,10.7028-5.7764,19.4779-5.7764,19.4779,79.1744-9.8055,109.6335-85.3715,109.6335-85.3715h.1493c2.3364,5.5177,33.4346,75.5957,109.4843,85.0142,0,0-2.9357-8.744-6.1962-19.41a409.78,409.78,0,0,0,64.8857,14.582c.0039.4557.0173.9092.0173,1.3658V394.51c0,78.1735-63.5984,141.7719-141.7709,141.7719H480.2064C402.0329,536.2822,338.4345,472.6838,338.4345,394.51ZM590.533,577.72l-90.73,69.1376-90.4052-68.89a10.11,10.11,0,0,0,.62-3.4805V562.2319c16.7606,18.1009,56.9671,25.1284,100.6489,15.4271,36.4512-8.0947,66.172-25.7058,79.3169-44.9561v41.7848A10.08,10.08,0,0,0,590.533,577.72ZM481.742,694.0931a9.1837,9.1837,0,0,1-8.4617,5.7652,7.4311,7.4311,0,0,1-3.1011-1.5389L348.9386,597.643c1.1918-5.3777,21.6012-13.6959,50.72-20.5653a4.5568,4.5568,0,0,1,3.8179.8169l94.6058,72.0919.041,4.91-8.8648,22.0243Zm19.9219,238.7686-3.7936.0112V663.57h3.7936ZM529.09,891.664a7.7331,7.7331,0,0,1-7.7332,7.7331h-4.9249a7.7331,7.7331,0,0,1-7.7333-7.7331v-4.9249a7.7334,7.7334,0,0,1,7.7333-7.7335h4.9249a7.7334,7.7334,0,0,1,7.7332,7.7335Zm0-75.0508a7.7335,7.7335,0,0,1-7.7332,7.7335h-4.9249a7.7335,7.7335,0,0,1-7.7333-7.7335v-4.9245a7.7334,7.7334,0,0,1,7.7333-7.7335h4.9249a7.7334,7.7334,0,0,1,7.7332,7.7335Zm0-75.05a7.7333,7.7333,0,0,1-7.7332,7.733h-4.9249a7.7333,7.7333,0,0,1-7.7333-7.733v-4.9249a7.7335,7.7335,0,0,1,7.7333-7.7336h4.9249a7.7335,7.7335,0,0,1,7.7332,7.7336Zm.3366-43.2434a7.4424,7.4424,0,0,1-2.7206,1.4284,9.145,9.145,0,0,1-6.2573-5.1552l-15.4457-30.9492-3.5208-8.7471.041-4.91,94.6059-72.0914a4.5565,4.5565,0,0,1,3.8178-.8169c29.1191,6.8694,49.5285,15.1876,50.72,20.5653Z"/><path d="M501.0092,373.3511h9.7778a12.7822,12.7822,0,0,0,12.767-12.768,1.7653,1.7653,0,0,0-3.5306,0,9.2472,9.2472,0,0,1-9.2364,9.2374h-9.7778a9.2472,9.2472,0,0,1-9.2364-9.2374,1.7653,1.7653,0,0,0-3.5306,0A12.7823,12.7823,0,0,0,501.0092,373.3511Z"/><path d="M431.2542,298.031c-4.4844,0-8.12,5.8769-8.12,13.1263s3.6354,13.1265,8.12,13.1265,8.12-5.8769,8.12-13.1265S435.7388,298.031,431.2542,298.031Z"/><path d="M448.5956,277.0651a39.4337,39.4337,0,0,0-51.8362,20.4114,1.7648,1.7648,0,1,0,3.2366,1.4079,35.8643,35.8643,0,0,1,47.1917-18.5828,1.7647,1.7647,0,1,0,1.4079-3.2365Z"/><path d="M580.5415,298.031c-4.4844,0-8.12,5.8769-8.12,13.1263s3.6354,13.1265,8.12,13.1265,8.12-5.8769,8.12-13.1265S585.0261,298.031,580.5415,298.031Z"/><path d="M564.6086,280.3016A35.8643,35.8643,0,0,1,611.8,298.8844a1.7647,1.7647,0,0,0,3.2365-1.4079,39.44,39.44,0,0,0-51.8362-20.4114,1.7648,1.7648,0,1,0,1.408,3.2365Z"/><path d="M549.1552,407.9491a1.7657,1.7657,0,0,0-1.7653-1.7652H464.4054a1.7656,1.7656,0,0,0-1.7653,1.7652,43.2576,43.2576,0,1,0,86.5151,0Zm-82.3133,7.2645a39.6467,39.6467,0,0,1-.6332-5.4992h79.3779a39.6614,39.6614,0,0,1-.5784,5.1732c-3.9383,2.7054-14.1318,6.765-39.8657,6.765C480.4233,421.6526,470.6674,417.9073,466.8419,415.2136Z"/></svg>