<?xml version="1.0" ?><svg data-name="Layer 3" id="Layer_3" viewBox="0 0 1000 1000" xmlns="http://www.w3.org/2000/svg"><title/><path d="M598.4213,609.132a6.5676,6.5676,0,0,1-4.9083-6.362V539.121a171.0384,171.0384,0,0,0,77.3059-135.5451h.5122a34.2928,34.2928,0,0,0,34.2543-34.2534V350.4651A32.151,32.151,0,0,0,680.8615,319.23c25.22-306.71-225.915-209.996-249.7777-200.1379a83.2672,83.2672,0,0,0-11.303-47.2253C398.8957,35.6926,356.7,20.9546,325.5342,38.9481s-39.5,61.9053-18.6155,98.0793a84.7187,84.7187,0,0,0,26.495,28.392c.6008-.5932,46.2565-45.4851,97.6288-46.3271l-97.6317,46.3356c-20.909,28.9465-31.8887,76.2583-13.2465,153.5226a32.15,32.15,0,0,0-26.0165,31.5146v18.8574a34.2928,34.2928,0,0,0,34.2544,34.2534h.7789A171.0384,171.0384,0,0,0,406.487,539.121V602.77a6.5676,6.5676,0,0,1-4.9083,6.362C332.885,619.47,269.93,652.4962,224.3023,702.1338c-46.1616,50.217-71.5836,114.4054-71.5836,180.74v84.0847a1.7657,1.7657,0,0,0,1.7653,1.7653H845.516a1.7657,1.7657,0,0,0,1.7653-1.7653V882.8736c0-66.3344-25.422-130.5228-71.5836-180.74C730.07,652.4962,667.115,619.47,598.4213,609.132Zm72.5729-213.0964v-74.14h2.4906a28.6027,28.6027,0,0,1,28.57,28.57v18.8574a30.7577,30.7577,0,0,1-30.7237,30.7228h-.3881C670.9742,398.712,670.9942,397.3761,670.9942,396.0356Zm-341.9884,0v4.01h-.6036a30.7577,30.7577,0,0,1-30.7238-30.7228V350.4651a28.6027,28.6027,0,0,1,28.57-28.57h2.7574Zm3.5306,0V319.6447c65.3554-18.1262,95.1824-90.69,95.1824-90.69s5.0043,38.8954,107.23,65.0263L516.7528,264.062s84.11,51.7695,150.4547,55.96c-.002.0365-.0107.071-.0107.108v81.6808a1.7539,1.7539,0,0,0,.1309.6623C663.9315,491.84,590.1829,563.4992,500,563.4992,407.66,563.4992,332.5364,488.3753,332.5364,396.0356ZM562.2941,555.28q-2.9181,1.1632-6.1488,2.27Q559.246,556.4691,562.2941,555.28Zm61.985,230.7016c-146.1092,0-270.3157-59.8564-315.803-143.263a304.9059,304.9059,0,0,1,93.715-30.11,1.592,1.592,0,0,0,.1656-.0322,10.0949,10.0949,0,0,0,7.6609-9.8069V582.8235c16.8307,18.0074,57.0352,24.88,100.6238,15.2,36.564-8.12,66.2658-25.7857,79.341-45.1031v49.85a10.0949,10.0949,0,0,0,7.6609,9.8069,1.592,1.592,0,0,0,.1656.0322c67.9332,10.2042,130.1869,42.8461,175.291,91.9132a273.277,273.277,0,0,1,34.4729,46.5344C754.9363,773.1341,691.9591,785.9819,624.2791,785.9819Z"/><path d="M498.7235,414.5221h9.7778a12.7815,12.7815,0,0,0,12.767-12.767,1.7653,1.7653,0,0,0-3.5306,0,9.2464,9.2464,0,0,1-9.2364,9.2364h-9.7778a9.2464,9.2464,0,0,1-9.2364-9.2364,1.7653,1.7653,0,0,0-3.5306,0A12.7815,12.7815,0,0,0,498.7235,414.5221Z"/><path d="M425.3566,339.2027c-4.4848,0-8.12,5.8769-8.12,13.1263s3.6352,13.1263,8.12,13.1263,8.12-5.8767,8.12-13.1263S429.8409,339.2027,425.3566,339.2027Z"/><path d="M417.3651,316.8174a39.0787,39.0787,0,0,0-27.97,11.2568,1.7654,1.7654,0,1,0,2.4712,2.5218,35.86,35.86,0,0,1,50.7155.5112,1.7654,1.7654,0,0,0,2.5219-2.4712A39.137,39.137,0,0,0,417.3651,316.8174Z"/><path d="M574.6439,339.2027c-4.4848,0-8.12,5.8769-8.12,13.1263s3.6353,13.1263,8.12,13.1263,8.12-5.8767,8.12-13.1263S579.1282,339.2027,574.6439,339.2027Z"/><path d="M556.1857,332.6291a1.76,1.76,0,0,0,1.3067-.5784,35.905,35.905,0,0,1,50.6619-2.4031,1.7646,1.7646,0,0,0,2.3739-2.6114,39.3938,39.3938,0,0,0-55.6473,2.6407,1.7654,1.7654,0,0,0,1.3048,2.9522Z"/><path d="M546.87,448.0383a1.7657,1.7657,0,0,0-1.7653-1.7653H462.12a1.7657,1.7657,0,0,0-1.7653,1.7653,43.258,43.258,0,0,0,86.516,0Zm-82.3141,7.2642a39.6882,39.6882,0,0,1-.6334-5.4989h79.3789a39.5654,39.5654,0,0,1-.5783,5.1723c-3.9376,2.7053-14.13,6.7656-39.8667,6.7656C478.1373,461.7415,468.3814,457.9962,464.5563,455.3025Z"/></svg>